# xmcd
#
# Track frame offsets: 
#        150
#        14958
#        30922
#        47943
#        64056
#        78204
#        91747
#        110286
#        126038
#        142763
#        155475
#
# Disc length: 2408 seconds
#
# Revision: 0
# Processed by: cddbd v1.5.2PL0 Copyright (c) Steve Scherf et al.
# Submitted via: ExactAudioCopyFreeDBPlugin 1.0
#
DISCID=8209660b
DTITLE=John and Audrey Wiggins - The Dream
DYEAR=1997
DGENRE=Country
TTITLE0=Somewhere In Love
TTITLE1=Once You've Loved Somebody
TTITLE2=I Can Sleep When I'm Dead
TTITLE3=Little Bitty Pieces
TTITLE4=Crazy Love
TTITLE5=Were You Ever Really Mine
TTITLE6=Be Still My Heart
TTITLE7=Party Down
TTITLE8=Going With My Heart
TTITLE9=If A Train Left For Memphis
TTITLE10=The Dream
EXTD=
EXTT0=
EXTT1=
EXTT2=
EXTT3=
EXTT4=
EXTT5=
EXTT6=
EXTT7=
EXTT8=
EXTT9=
EXTT10=
PLAYORDER=
